<?xml version="1.0" encoding="utf-8"?>
<!-- Generator: Adobe Illustrator 15.1.0, SVG Export Plug-In . SVG Version: 6.00 Build 0)  -->
<!DOCTYPE svg PUBLIC "-//W3C//DTD SVG 1.1//EN" "http://www.w3.org/Graphics/SVG/1.1/DTD/svg11.dtd">
<svg version="1.1" id="Layer_1" xmlns="http://www.w3.org/2000/svg" xmlns:xlink="http://www.w3.org/1999/xlink" x="0px" y="0px"
	 width="39.436px" height="28.018px" viewBox="0 0 39.436 28.018" enable-background="new 0 0 39.436 28.018" xml:space="preserve">
<g>
	<g>
		<path fill="#333333" d="M10.878,27.974c-0.219,0-0.428-0.088-0.582-0.246C9.876,27.281,0.001,16.741,0.001,10.925
			c0-5.998,4.879-10.88,10.877-10.88c6,0,10.881,4.882,10.881,10.88c0,5.817-9.879,16.356-10.301,16.803
			C11.308,27.886,11.098,27.974,10.878,27.974z M10.878,1.64c-5.117,0-9.281,4.165-9.281,9.284c0,4.028,6.234,11.719,9.281,15.075
			c3.049-3.355,9.283-11.047,9.283-15.075C20.161,5.804,15.997,1.64,10.878,1.64z"/>
	</g>
	<g>
		<path fill="#333333" d="M10.878,14.328c-2.537,0-4.602-2.062-4.602-4.602c0-2.536,2.064-4.601,4.602-4.601
			s4.604,2.064,4.604,4.601C15.481,12.266,13.417,14.328,10.878,14.328z M10.878,6.721c-1.658,0-3.006,1.35-3.006,3.005
			c0,1.658,1.348,3.008,3.006,3.008s3.004-1.35,3.004-3.008C13.882,8.071,12.536,6.721,10.878,6.721z"/>
	</g>
</g>
</svg>
