<?xml version="1.0" encoding="utf-8"?>
<!-- Generator: Adobe Illustrator 15.1.0, SVG Export Plug-In . SVG Version: 6.00 Build 0)  -->
<!DOCTYPE svg PUBLIC "-//W3C//DTD SVG 1.1//EN" "http://www.w3.org/Graphics/SVG/1.1/DTD/svg11.dtd">
<svg version="1.1" id="Layer_1" xmlns="http://www.w3.org/2000/svg" xmlns:xlink="http://www.w3.org/1999/xlink" x="0px" y="0px"
	 width="42.301px" height="39.708px" viewBox="0 0 42.301 39.708" enable-background="new 0 0 42.301 39.708" xml:space="preserve">
<g>
	<g>
		<path fill="#FFFFFF" d="M35.587,2.802h-5.271V1.483c0-0.791-0.527-1.318-1.318-1.318s-1.318,0.527-1.318,1.318v1.318h-13.18V1.483
			c0-0.791-0.527-1.318-1.318-1.318s-1.318,0.527-1.318,1.318v1.318H6.59C2.899,2.802,0,5.701,0,9.392v23.725
			c0,3.691,2.899,6.591,6.59,6.591h28.997c3.691,0,6.591-2.899,6.591-6.591V9.392C42.178,5.701,39.278,2.802,35.587,2.802
			L35.587,2.802z M2.636,9.392c0-2.109,1.845-3.955,3.954-3.955h5.272v1.318c0,0.791,0.527,1.318,1.318,1.318
			s1.318-0.527,1.318-1.318V5.438h13.18v1.318c0,0.791,0.528,1.318,1.318,1.318c0.791,0,1.318-0.527,1.318-1.318V5.438h5.271
			c2.109,0,3.955,1.845,3.955,3.955v3.954H2.636V9.392L2.636,9.392z M39.542,33.117c0,2.109-1.846,3.955-3.955,3.955H6.59
			c-2.109,0-3.954-1.846-3.954-3.955V15.982h36.906V33.117z"/>
		<path fill="#FFFFFF" d="M9.226,33.117c0.791,0,1.318-0.263,1.845-0.791c0.527-0.526,0.791-1.318,0.791-1.845
			c0-0.527-0.264-1.318-0.791-1.845c-1.054-1.055-2.636-1.055-3.69,0C6.854,29.163,6.59,29.69,6.59,30.481
			c0,0.526,0.264,1.318,0.792,1.845C7.908,32.854,8.435,33.117,9.226,33.117z"/>
		<path fill="#FFFFFF" d="M9.226,25.208c0.791,0,1.318-0.264,1.845-0.791c0.527-0.527,0.791-1.318,0.791-1.845
			c0-0.527-0.264-1.318-0.791-1.846c-1.054-1.054-2.636-1.054-3.69,0c-0.527,0.527-0.792,1.054-0.792,1.846
			c0,0.791,0.264,1.317,0.792,1.845C7.908,24.945,8.435,25.208,9.226,25.208z"/>
		<path fill="#FFFFFF" d="M17.135,33.117c0.791,0,1.318-0.263,1.845-0.791c0.527-0.526,0.791-1.318,0.791-1.845
			c0-0.527-0.264-1.318-0.791-1.845c-1.055-1.055-2.636-1.055-3.691,0c-0.527,0.526-0.791,1.317-0.791,1.845
			c0,0.526,0.264,1.318,0.791,1.845C15.816,32.854,16.344,33.117,17.135,33.117z"/>
		<path fill="#FFFFFF" d="M17.135,25.208c0.791,0,1.318-0.264,1.845-0.791c0.527-0.527,0.791-1.318,0.791-1.845
			c0-0.527-0.264-1.318-0.791-1.846c-1.055-1.054-2.636-1.054-3.691,0c-0.527,0.527-0.791,1.318-0.791,1.846
			c0,0.526,0.264,1.317,0.791,1.845C15.816,24.945,16.344,25.208,17.135,25.208z"/>
		<path fill="#FFFFFF" d="M25.042,33.117c0.792,0,1.318-0.263,1.845-0.791c0.528-0.526,0.791-1.054,0.791-1.845
			s-0.263-1.318-0.791-1.845c-1.054-1.055-2.636-1.055-3.69,0c-0.528,0.526-0.792,1.317-0.792,1.845
			c0,0.526,0.264,1.318,0.792,1.845C23.725,32.854,24.251,33.117,25.042,33.117z"/>
		<path fill="#FFFFFF" d="M25.042,25.208c0.792,0,1.318-0.264,1.845-0.791c0.528-0.527,0.791-1.054,0.791-1.845
			c0-0.527-0.263-1.318-0.791-1.846c-1.054-1.054-2.636-1.054-3.69,0c-0.528,0.527-0.792,1.318-0.792,1.846
			c0,0.526,0.264,1.317,0.792,1.845C23.725,24.945,24.251,25.208,25.042,25.208z"/>
		<path fill="#FFFFFF" d="M32.951,33.117c0.791,0,1.318-0.263,1.846-0.791c0.527-0.526,0.79-1.318,0.79-1.845
			c0-0.527-0.263-1.318-0.79-1.845c-1.055-1.055-2.636-1.055-3.69,0c-0.527,0.526-0.791,1.054-0.791,1.845
			c0,0.526,0.264,1.318,0.791,1.845C31.633,32.854,32.161,33.117,32.951,33.117z"/>
		<path fill="#FFFFFF" d="M32.951,25.208c0.791,0,1.318-0.264,1.846-0.791s0.79-1.054,0.79-1.845c0-0.527-0.263-1.318-0.79-1.846
			c-1.055-1.054-2.636-1.054-3.69,0c-0.527,0.527-0.791,1.318-0.791,1.846c0,0.526,0.264,1.317,0.791,1.845
			C31.633,24.945,32.161,25.208,32.951,25.208z"/>
	</g>
</g>
</svg>
