<?xml version="1.0" encoding="utf-8"?>
<!-- Generator: Adobe Illustrator 15.1.0, SVG Export Plug-In . SVG Version: 6.00 Build 0)  -->
<!DOCTYPE svg PUBLIC "-//W3C//DTD SVG 1.1//EN" "http://www.w3.org/Graphics/SVG/1.1/DTD/svg11.dtd">
<svg version="1.1" id="Layer_1" xmlns="http://www.w3.org/2000/svg" xmlns:xlink="http://www.w3.org/1999/xlink" x="0px" y="0px"
	 width="39.436px" height="28.018px" viewBox="0 0 39.436 28.018" enable-background="new 0 0 39.436 28.018" xml:space="preserve">
<g>
	<g>
		<path fill="#333333" d="M13.967,0.042C6.252,0.042,0,6.294,0,14.009s6.252,13.967,13.967,13.967
			c7.713,0,13.967-6.252,13.967-13.967S21.68,0.042,13.967,0.042z M13.967,26.509c-6.904,0-12.5-5.598-12.5-12.5
			c0-6.904,5.596-12.5,12.5-12.5c6.902,0,12.499,5.595,12.499,12.5C26.466,20.911,20.869,26.509,13.967,26.509z"/>
	</g>
	<g>
		<path fill="#333333" d="M9.1,12.604c0.102,0.06,0.216,0.089,0.328,0.089c0.114,0,0.229-0.029,0.33-0.089
			c0.389-0.227,3.804-2.279,3.804-4.446c0-1.327-1.073-2.405-2.394-2.405c-0.686,0-1.305,0.29-1.74,0.754
			C8.991,6.042,8.375,5.752,7.69,5.752c-1.32,0-2.395,1.078-2.395,2.405C5.295,10.324,8.711,12.377,9.1,12.604z M7.69,7.059
			c0.598,0,1.086,0.492,1.086,1.099c0,0.359,0.293,0.652,0.652,0.652c0.361,0,0.654-0.293,0.654-0.652
			c0-0.606,0.486-1.099,1.086-1.099c0.599,0,1.087,0.492,1.087,1.099c0,0.98-1.616,2.345-2.827,3.117
			c-1.209-0.772-2.826-2.137-2.826-3.117C6.602,7.551,7.09,7.059,7.69,7.059z"/>
		<path fill="#333333" d="M23.461,15.89l-2.543-2.541c-0.502-0.504-1.421-0.885-2.133-0.885H12.12c-0.899,0-1.633,0.732-1.633,1.633
			v0.197c0,0.9,0.733,1.633,1.633,1.633h1.755l-0.349,0.348c-0.237,0.238-0.774,0.416-1.107,0.369l-5.606-0.801
			c-0.738-0.105-1.625,0.146-2.063,0.586c-0.272,0.272-0.388,0.637-0.319,0.996c0.082,0.424,0.404,0.785,0.887,0.991l5.744,2.462
			c0.629,0.27,1.604,0.347,2.267,0.182l2.411-0.604c0.563-0.14,1.422-0.435,1.953-0.672l0.637-0.282
			c0.234-0.104,0.637-0.021,0.81,0.169l3.642,3.853c0.129,0.142,0.306,0.212,0.482,0.212c0.157,0,0.315-0.056,0.442-0.17
			c0.266-0.244,0.284-0.658,0.039-0.924l-3.642-3.853c-0.549-0.601-1.561-0.812-2.304-0.481l-0.636,0.283
			c-0.459,0.203-1.255,0.477-1.741,0.599l-2.409,0.602c-0.387,0.097-1.07,0.042-1.436-0.115l-5.699-2.44
			c0.201-0.079,0.494-0.135,0.752-0.099l5.605,0.801c0.737,0.106,1.691-0.212,2.217-0.739l0.771-0.77
			c0.536-0.537,0.417-1.02,0.343-1.203c-0.074-0.182-0.332-0.605-1.093-0.605H12.12c-0.177,0-0.326-0.15-0.326-0.326v-0.197
			c0-0.176,0.149-0.326,0.326-0.326h6.665c0.363,0,0.953,0.244,1.211,0.502l2.541,2.541c0.255,0.254,0.668,0.254,0.924,0
			C23.714,16.558,23.714,16.145,23.461,15.89z"/>
	</g>
</g>
</svg>
