<?xml version="1.0" encoding="utf-8"?>
<!-- Generator: Adobe Illustrator 15.1.0, SVG Export Plug-In . SVG Version: 6.00 Build 0)  -->
<!DOCTYPE svg PUBLIC "-//W3C//DTD SVG 1.1//EN" "http://www.w3.org/Graphics/SVG/1.1/DTD/svg11.dtd">
<svg version="1.1" id="Layer_1" xmlns="http://www.w3.org/2000/svg" xmlns:xlink="http://www.w3.org/1999/xlink" x="0px" y="0px"
	 width="39.436px" height="28.018px" viewBox="0 0 39.436 28.018" enable-background="new 0 0 39.436 28.018" xml:space="preserve">
<g>
	<g>
		<path fill="#333333" d="M24.986,16.946c-0.123,0-0.244-0.044-0.34-0.136l-5.727-5.372c-0.2-0.186-0.209-0.502-0.021-0.702
			c0.188-0.202,0.501-0.212,0.704-0.022l5.726,5.372c0.199,0.186,0.211,0.502,0.021,0.703
			C25.253,16.892,25.118,16.946,24.986,16.946z"/>
		<path fill="#333333" d="M5.873,16.946c-0.131,0-0.263-0.054-0.362-0.156c-0.189-0.202-0.179-0.518,0.021-0.703l5.728-5.372
			c0.202-0.188,0.517-0.179,0.704,0.022c0.188,0.2,0.178,0.516-0.021,0.702L6.214,16.81C6.118,16.902,5.996,16.946,5.873,16.946z"/>
	</g>
	<path fill="#333333" d="M28.372,21.941H2.489C1.117,21.941,0,20.825,0,19.452V2.489C0,1.117,1.117,0,2.489,0h25.884
		c1.371,0,2.488,1.117,2.488,2.488v16.964C30.861,20.825,29.743,21.941,28.372,21.941z M2.489,0.995
		c-0.823,0-1.493,0.67-1.493,1.493v16.964c0,0.822,0.67,1.492,1.493,1.492h25.884c0.822,0,1.492-0.67,1.492-1.492V2.489
		c0-0.823-0.67-1.493-1.492-1.493H2.489z"/>
	<path fill="#333333" d="M15.431,13.47c-0.663,0-1.324-0.22-1.828-0.659L0.826,1.665c-0.206-0.18-0.229-0.494-0.048-0.703
		C0.96,0.756,1.273,0.736,1.48,0.915L14.258,12.06c0.636,0.554,1.711,0.554,2.345,0L29.365,0.933
		c0.207-0.179,0.518-0.16,0.701,0.049c0.18,0.207,0.16,0.52-0.047,0.701L17.258,12.811C16.753,13.251,16.093,13.47,15.431,13.47z"/>
</g>
</svg>
