<?xml version="1.0" encoding="utf-8"?>
<!-- Generator: Adobe Illustrator 15.1.0, SVG Export Plug-In . SVG Version: 6.00 Build 0)  -->
<!DOCTYPE svg PUBLIC "-//W3C//DTD SVG 1.1//EN" "http://www.w3.org/Graphics/SVG/1.1/DTD/svg11.dtd">
<svg version="1.1" id="Layer_1" xmlns="http://www.w3.org/2000/svg" xmlns:xlink="http://www.w3.org/1999/xlink" x="0px" y="0px"
	 width="32px" height="20px" viewBox="0 0 32 20" enable-background="new 0 0 32 20" xml:space="preserve">
<path fill="#134C98" d="M24.883,5.806h-3.385L17.019,0.58c-0.597-0.695-1.645-0.776-2.339-0.181
	c-0.697,0.596-0.777,1.644-0.18,2.339l2.629,3.068H9.413l2.629-3.068c0.596-0.695,0.516-1.743-0.18-2.339
	c-0.695-0.595-1.743-0.514-2.34,0.181L5.042,5.806H1.658C0.743,5.806,0,6.548,0,7.465s0.743,1.658,1.658,1.658h0.021
	c0,0.053-0.016,0.089-0.009,0.138l1.428,8.566c0.201,1.206,1.232,2.079,2.455,2.079h15.437c1.222,0,2.253-0.873,2.452-2.079
	l1.43-8.566c0.008-0.046-0.007-0.085-0.007-0.138h0.019c0.917,0,1.659-0.741,1.659-1.658S25.8,5.806,24.883,5.806z M9.123,15.759
	c0,0.46-0.371,0.83-0.827,0.83c-0.46,0-0.831-0.37-0.831-0.83v-4.146c0-0.46,0.371-0.829,0.831-0.829
	c0.457,0,0.827,0.369,0.827,0.829V15.759z M12.441,15.759c0,0.46-0.371,0.83-0.829,0.83c-0.458,0-0.829-0.37-0.829-0.83v-4.146
	c0-0.46,0.371-0.829,0.829-0.829c0.458,0,0.829,0.369,0.829,0.829V15.759z M15.759,15.759c0,0.46-0.369,0.83-0.829,0.83
	s-0.829-0.37-0.829-0.83v-4.146c0-0.46,0.369-0.829,0.829-0.829s0.829,0.369,0.829,0.829V15.759z M19.077,15.759
	c0,0.46-0.37,0.83-0.83,0.83c-0.458,0-0.829-0.37-0.829-0.83v-4.146c0-0.46,0.371-0.829,0.829-0.829c0.46,0,0.83,0.369,0.83,0.829
	V15.759z"/>
</svg>
