<?xml version="1.0" encoding="utf-8"?>
<!-- Generator: Adobe Illustrator 16.0.0, SVG Export Plug-In . SVG Version: 6.00 Build 0)  -->
<!DOCTYPE svg PUBLIC "-//W3C//DTD SVG 1.1//EN" "http://www.w3.org/Graphics/SVG/1.1/DTD/svg11.dtd">
<svg xmlns="http://www.w3.org/2000/svg" xmlns:xlink="http://www.w3.org/1999/xlink" version="1.1" id="Layer_1" x="0px" y="0px" width="512px" height="512px" viewBox="0 0 128 128" enable-background="new 0 0 128 128" xml:space="preserve">
<g>
	<g>
		<path d="M64,0C28.656,0,0,28.656,0,64s28.656,64,64,64s64-28.656,64-64S99.344,0,64,0z M64,120C33.125,120,8,94.875,8,64    S33.125,8,64,8s56,25.125,56,56S94.875,120,64,120z M64,48c-4.414,0-8,3.586-8,8v40c0,4.414,3.586,8,8,8s8-3.586,8-8V56    C72,51.586,68.414,48,64,48z M64,24c-4.414,0-8,3.586-8,8s3.586,8,8,8s8-3.586,8-8S68.414,24,64,24z" fill="#FFFFFF"/>
	</g>
</g>
</svg>
