<?xml version="1.0" encoding="utf-8"?>
<!-- Generator: Adobe Illustrator 15.1.0, SVG Export Plug-In . SVG Version: 6.00 Build 0)  -->
<!DOCTYPE svg PUBLIC "-//W3C//DTD SVG 1.1//EN" "http://www.w3.org/Graphics/SVG/1.1/DTD/svg11.dtd">
<svg version="1.1" id="Layer_1" xmlns="http://www.w3.org/2000/svg" xmlns:xlink="http://www.w3.org/1999/xlink" x="0px" y="0px"
	 width="28.812px" height="16.844px" viewBox="0 0 28.812 16.844" enable-background="new 0 0 28.812 16.844" xml:space="preserve">
<path fill="#134C98" d="M20.938,4.886h-2.849L14.32,0.488c-0.502-0.585-1.384-0.653-1.968-0.152
	c-0.586,0.502-0.654,1.383-0.151,1.969l2.212,2.582H7.921l2.212-2.582c0.501-0.585,0.434-1.467-0.151-1.969
	c-0.585-0.5-1.466-0.432-1.969,0.152l-3.77,4.398H1.395C0.625,4.886,0,5.51,0,6.281c0,0.771,0.625,1.395,1.395,1.395h0.018
	c0,0.045-0.014,0.076-0.007,0.117l1.202,7.208c0.169,1.015,1.037,1.749,2.066,1.749h12.989c1.028,0,1.896-0.734,2.063-1.749
	l1.203-7.208c0.006-0.039-0.006-0.072-0.006-0.117h0.016c0.771,0,1.396-0.623,1.396-1.395C22.334,5.51,21.709,4.886,20.938,4.886z
	 M7.676,13.26c0,0.388-0.312,0.699-0.695,0.699c-0.387,0-0.699-0.312-0.699-0.699V9.771c0-0.388,0.312-0.698,0.699-0.698
	c0.384,0,0.695,0.311,0.695,0.698V13.26z M10.469,13.26c0,0.388-0.312,0.699-0.698,0.699c-0.385,0-0.697-0.312-0.697-0.699V9.771
	c0-0.388,0.312-0.698,0.697-0.698c0.386,0,0.698,0.311,0.698,0.698V13.26z M13.26,13.26c0,0.388-0.311,0.699-0.698,0.699
	s-0.698-0.312-0.698-0.699V9.771c0-0.388,0.311-0.698,0.698-0.698s0.698,0.311,0.698,0.698V13.26z M16.052,13.26
	c0,0.388-0.311,0.699-0.698,0.699c-0.385,0-0.698-0.312-0.698-0.699V9.771c0-0.388,0.312-0.698,0.698-0.698
	c0.387,0,0.698,0.311,0.698,0.698V13.26z"/>
</svg>
