<?xml version="1.0" encoding="utf-8"?>
<!-- Generator: Adobe Illustrator 15.1.0, SVG Export Plug-In . SVG Version: 6.00 Build 0)  -->
<!DOCTYPE svg PUBLIC "-//W3C//DTD SVG 1.1//EN" "http://www.w3.org/Graphics/SVG/1.1/DTD/svg11.dtd">
<svg version="1.1" id="Layer_1" xmlns="http://www.w3.org/2000/svg" xmlns:xlink="http://www.w3.org/1999/xlink" x="0px" y="0px"
	 width="55px" height="39.708px" viewBox="0 0 55 39.708" enable-background="new 0 0 55 39.708" xml:space="preserve">
<g>
	<g>
		<g>
			<path fill="#FFFFFF" d="M51.544,8.376L50.91,4.783c-0.469-2.658-2.956-4.585-5.913-4.585c-0.395,0-0.799,0.034-1.193,0.105
				l-38.58,6.8c-3.377,0.597-5.686,3.576-5.146,6.643l0.044,0.242v19.813c0,3.258,2.922,5.907,6.516,5.907h41.729
				c3.593,0,6.515-2.649,6.515-5.907V13.526C54.881,11.318,53.534,9.388,51.544,8.376z M44.386,3.6
				c0.202-0.034,0.409-0.054,0.611-0.054c1.33,0,2.428,0.765,2.615,1.816l0.398,2.257h-26.43L44.386,3.6z M51.529,33.801
				c0,1.41-1.418,2.559-3.163,2.559H6.638c-1.747,0-3.167-1.148-3.167-2.559V13.526c0-1.41,1.42-2.555,3.167-2.555h41.729
				c1.745,0,3.163,1.146,3.163,2.555V33.801z"/>
			<rect x="15.005" y="25.105" fill="#FFFFFF" width="3.35" height="2.882"/>
			<rect x="15.005" y="30.873" fill="#FFFFFF" width="3.35" height="2.883"/>
			<rect x="15.005" y="13.575" fill="#FFFFFF" width="3.35" height="2.883"/>
			<rect x="15.005" y="19.34" fill="#FFFFFF" width="3.35" height="2.883"/>
		</g>
	</g>
</g>
<g>
	<rect x="27.605" y="19.07" fill="#FFFFFF" width="13.833" height="2.049"/>
	<rect x="27.605" y="22.748" fill="#FFFFFF" width="7.149" height="2.047"/>
	<rect x="27.605" y="26.424" fill="#FFFFFF" width="9.125" height="2.05"/>
</g>
</svg>
