<?xml version="1.0" encoding="utf-8"?>
<!-- Generator: Adobe Illustrator 15.1.0, SVG Export Plug-In . SVG Version: 6.00 Build 0)  -->
<!DOCTYPE svg PUBLIC "-//W3C//DTD SVG 1.1//EN" "http://www.w3.org/Graphics/SVG/1.1/DTD/svg11.dtd">
<svg version="1.1" id="Layer_1" xmlns="http://www.w3.org/2000/svg" xmlns:xlink="http://www.w3.org/1999/xlink" x="0px" y="0px"
	 width="20px" height="30px" viewBox="0 0 20 30" enable-background="new 0 0 20 30" xml:space="preserve">
<g>
	<path fill="#478982" d="M19.405,20.667l-7.368-7.368c-0.449-0.449-1.178-0.449-1.629,0c-0.448,0.449-0.448,1.179,0,1.629
		l5.403,5.402H1.151C0.516,20.33,0,20.846,0,21.481s0.516,1.151,1.151,1.151h14.66l-5.402,5.401c-0.45,0.451-0.45,1.179,0,1.629
		C10.635,29.888,10.929,30,11.223,30c0.295,0,0.591-0.112,0.814-0.337l7.368-7.367C19.854,21.845,19.854,21.117,19.405,20.667z"/>
</g>
</svg>
