<?xml version="1.0" encoding="utf-8"?>
<!-- Generator: Adobe Illustrator 15.1.0, SVG Export Plug-In . SVG Version: 6.00 Build 0)  -->
<!DOCTYPE svg PUBLIC "-//W3C//DTD SVG 1.1//EN" "http://www.w3.org/Graphics/SVG/1.1/DTD/svg11.dtd">
<svg version="1.1" id="Layer_1" xmlns="http://www.w3.org/2000/svg" xmlns:xlink="http://www.w3.org/1999/xlink" x="0px" y="0px"
	 width="60px" height="60px" viewBox="0 0 60 60" enable-background="new 0 0 60 60" xml:space="preserve">
<g>
	<path fill="#FAFDFE" d="M7.5,11.25c-2.071,0-3.75,1.679-3.75,3.75v30c0,2.07,1.679,3.75,3.75,3.75s3.75-1.68,3.75-3.75V15
		C11.25,12.929,9.571,11.25,7.5,11.25z"/>
	<path fill="#FAFDFE" d="M18.75,18.75c-2.071,0-3.75,1.679-3.75,3.75v15c0,2.07,1.679,3.75,3.75,3.75s3.75-1.68,3.75-3.75v-15
		C22.5,20.429,20.821,18.75,18.75,18.75z"/>
	<path fill="#FAFDFE" d="M30,0c-2.071,0-3.75,1.679-3.75,3.75v52.5c0,2.07,1.679,3.75,3.75,3.75c2.07,0,3.75-1.68,3.75-3.75V3.75
		C33.75,1.679,32.07,0,30,0z"/>
	<path fill="#FAFDFE" d="M41.25,9.375c-2.07,0-3.75,1.679-3.75,3.75v33.75c0,2.07,1.68,3.75,3.75,3.75s3.75-1.68,3.75-3.75v-33.75
		C45,11.054,43.32,9.375,41.25,9.375z"/>
	<path fill="#FAFDFE" d="M52.5,18.75c-2.07,0-3.75,1.679-3.75,3.75v15c0,2.07,1.68,3.75,3.75,3.75s3.75-1.68,3.75-3.75v-15
		C56.25,20.429,54.57,18.75,52.5,18.75z"/>
</g>
</svg>
