<?xml version="1.0" encoding="utf-8"?>
<!-- Generator: Adobe Illustrator 15.1.0, SVG Export Plug-In . SVG Version: 6.00 Build 0)  -->
<!DOCTYPE svg PUBLIC "-//W3C//DTD SVG 1.1//EN" "http://www.w3.org/Graphics/SVG/1.1/DTD/svg11.dtd">
<svg version="1.1" id="Layer_1" xmlns="http://www.w3.org/2000/svg" xmlns:xlink="http://www.w3.org/1999/xlink" x="0px" y="0px"
	 width="80px" height="24px" viewBox="0 0 80 24" enable-background="new 0 0 80 24" xml:space="preserve">
<g>
	<path fill="#FFFFFF" d="M5.879,4.745c0,0,0.596-0.945,0.596-2.215c0-1.257-0.603-2.215-0.603-2.215s0.943,0.604,2.212,0.604
		c1.266,0,2.225-0.604,2.225-0.604S9.705,1.256,9.701,2.523c-0.003,1.266,0.602,2.221,0.602,2.221S9.358,4.14,8.097,4.14
		C6.831,4.14,5.879,4.745,5.879,4.745z"/>
	<g>
		<g>
			<path fill="#FFFFFF" d="M5.424,19.487c0.654,0.632,1.593,0.948,2.82,0.948c0.878,0,1.635-0.219,2.267-0.66
				c0.634-0.438,1.022-0.902,1.166-1.392h3.831c-0.613,1.898-1.552,3.257-2.82,4.075c-1.267,0.815-2.799,1.225-4.596,1.225
				c-1.247,0-2.372-0.199-3.372-0.598c-1.001-0.399-1.85-0.964-2.544-1.702c-0.694-0.735-1.23-1.613-1.608-2.634
				C0.188,17.729,0,16.604,0,15.38c0-1.186,0.193-2.289,0.581-3.311c0.388-1.022,0.939-1.906,1.656-2.651
				c0.715-0.746,1.568-1.334,2.558-1.763C5.787,7.227,6.884,7.012,8.09,7.012c1.349,0,2.522,0.261,3.525,0.781
				c1.001,0.522,1.823,1.221,2.467,2.098c0.644,0.88,1.108,1.882,1.395,3.006c0.286,1.122,0.388,2.297,0.307,3.524H4.351
				C4.414,17.831,4.77,18.853,5.424,19.487z M10.343,11.149c-0.521-0.572-1.312-0.859-2.375-0.859c-0.694,0-1.271,0.117-1.731,0.353
				c-0.46,0.234-0.827,0.526-1.104,0.873c-0.275,0.347-0.47,0.715-0.582,1.104c-0.113,0.39-0.179,0.735-0.2,1.042h7.08
				C11.227,12.56,10.865,11.722,10.343,11.149z"/>
			<path fill="#FFFFFF" d="M28.381,21.263c-0.512,0.859-1.181,1.478-2.008,1.855c-0.827,0.376-1.763,0.567-2.805,0.567
				c-1.186,0-2.226-0.23-3.125-0.69c-0.9-0.46-1.641-1.083-2.223-1.87c-0.583-0.785-1.022-1.689-1.318-2.712
				c-0.297-1.021-0.443-2.084-0.443-3.188c0-1.062,0.146-2.088,0.443-3.081c0.295-0.99,0.735-1.864,1.318-2.619
				c0.583-0.756,1.312-1.364,2.191-1.823c0.879-0.46,1.9-0.69,3.066-0.69c0.938,0,1.833,0.199,2.682,0.598
				c0.847,0.398,1.517,0.986,2.007,1.761h0.061V0.42h4.353v22.867h-4.137v-2.024H28.381z M28.196,13.433
				c-0.122-0.604-0.332-1.136-0.628-1.594c-0.297-0.459-0.68-0.833-1.149-1.118c-0.47-0.286-1.063-0.43-1.778-0.43
				s-1.317,0.144-1.809,0.43c-0.491,0.286-0.884,0.664-1.18,1.133c-0.297,0.473-0.51,1.008-0.644,1.61
				c-0.132,0.603-0.198,1.229-0.198,1.886c0,0.611,0.071,1.225,0.215,1.837c0.142,0.614,0.372,1.16,0.688,1.641
				c0.317,0.479,0.715,0.868,1.196,1.166c0.48,0.295,1.058,0.442,1.731,0.442c0.715,0,1.313-0.143,1.793-0.429
				c0.479-0.285,0.862-0.669,1.15-1.148c0.285-0.48,0.49-1.027,0.612-1.64s0.185-1.245,0.185-1.9
				C28.381,14.664,28.318,14.036,28.196,13.433z"/>
			<path fill="#FFFFFF" d="M38.678,19.487c0.655,0.632,1.594,0.948,2.821,0.948c0.879,0,1.634-0.219,2.268-0.66
				c0.633-0.438,1.022-0.902,1.165-1.392h3.831c-0.612,1.898-1.554,3.257-2.819,4.075c-1.267,0.815-2.801,1.225-4.598,1.225
				c-1.247,0-2.371-0.199-3.371-0.598c-1.002-0.399-1.852-0.964-2.545-1.702c-0.695-0.735-1.231-1.613-1.607-2.634
				c-0.379-1.022-0.568-2.146-0.568-3.372c0-1.184,0.192-2.289,0.583-3.31c0.388-1.022,0.939-1.905,1.654-2.651
				c0.715-0.746,1.568-1.334,2.559-1.763c0.991-0.428,2.088-0.643,3.296-0.643c1.348,0,2.522,0.261,3.524,0.781
				c1,0.521,1.822,1.221,2.468,2.098c0.643,0.88,1.107,1.881,1.395,3.005c0.285,1.123,0.388,2.298,0.306,3.523H37.606
				C37.667,17.831,38.025,18.853,38.678,19.487z M43.598,11.149c-0.521-0.572-1.312-0.859-2.376-0.859
				c-0.694,0-1.271,0.117-1.731,0.353c-0.46,0.234-0.827,0.526-1.103,0.873c-0.276,0.347-0.471,0.715-0.583,1.104
				c-0.112,0.39-0.18,0.735-0.199,1.042h7.079C44.481,12.56,44.119,11.722,43.598,11.149z"/>
			<path fill="#FFFFFF" d="M49.896,12.313c0.062-1.022,0.316-1.87,0.766-2.544c0.449-0.675,1.021-1.216,1.715-1.625
				c0.696-0.408,1.476-0.699,2.346-0.873c0.868-0.175,1.742-0.261,2.62-0.261c0.798,0,1.605,0.056,2.422,0.167
				c0.817,0.113,1.562,0.333,2.237,0.658c0.674,0.328,1.228,0.782,1.654,1.364c0.43,0.583,0.645,1.354,0.645,2.314v8.245
				c0,0.715,0.041,1.399,0.123,2.053c0.081,0.654,0.225,1.145,0.428,1.472h-4.413c-0.082-0.246-0.148-0.495-0.199-0.752
				c-0.052-0.254-0.087-0.515-0.106-0.781c-0.695,0.716-1.512,1.218-2.452,1.502c-0.938,0.287-1.9,0.43-2.882,0.43
				c-0.755,0-1.46-0.092-2.114-0.276c-0.655-0.184-1.226-0.47-1.717-0.858c-0.49-0.386-0.873-0.877-1.147-1.471
				c-0.277-0.592-0.414-1.297-0.414-2.117c0-0.897,0.156-1.638,0.475-2.221c0.316-0.582,0.727-1.046,1.225-1.393
				c0.501-0.349,1.073-0.609,1.717-0.784c0.644-0.172,1.293-0.31,1.946-0.413c0.654-0.102,1.297-0.184,1.933-0.244
				c0.631-0.062,1.194-0.154,1.685-0.276c0.491-0.122,0.878-0.301,1.164-0.536s0.418-0.579,0.398-1.028
				c0-0.467-0.075-0.842-0.229-1.118c-0.154-0.275-0.358-0.49-0.614-0.643c-0.255-0.152-0.551-0.256-0.888-0.306
				c-0.339-0.05-0.7-0.077-1.09-0.077c-0.858,0-1.53,0.183-2.021,0.553c-0.49,0.366-0.776,0.98-0.858,1.837h-4.352V12.313z
				 M59.948,15.531c-0.184,0.165-0.413,0.292-0.689,0.383c-0.275,0.092-0.572,0.169-0.889,0.231
				c-0.317,0.061-0.649,0.111-0.995,0.153c-0.349,0.04-0.694,0.091-1.043,0.153c-0.325,0.06-0.648,0.142-0.965,0.245
				c-0.317,0.102-0.593,0.238-0.827,0.412c-0.234,0.177-0.424,0.395-0.566,0.66c-0.144,0.265-0.215,0.602-0.215,1.011
				c0,0.389,0.071,0.715,0.215,0.98c0.143,0.267,0.337,0.475,0.581,0.629s0.532,0.261,0.858,0.321
				c0.327,0.062,0.664,0.092,1.014,0.092c0.855,0,1.52-0.142,1.991-0.43c0.469-0.284,0.816-0.627,1.041-1.025
				s0.363-0.802,0.415-1.211c0.051-0.409,0.075-0.735,0.075-0.98L59.948,15.531L59.948,15.531z"/>
			<path fill="#FFFFFF" d="M69.684,19.348c0.193,0.337,0.444,0.612,0.75,0.827c0.307,0.215,0.658,0.374,1.058,0.476
				c0.399,0.103,0.812,0.153,1.242,0.153c0.305,0,0.628-0.036,0.965-0.108c0.336-0.069,0.643-0.184,0.919-0.337
				c0.275-0.151,0.506-0.356,0.689-0.612c0.185-0.255,0.275-0.577,0.275-0.966c0-0.653-0.436-1.145-1.302-1.471
				c-0.87-0.325-2.078-0.654-3.633-0.98c-0.633-0.142-1.251-0.312-1.854-0.506c-0.604-0.194-1.14-0.45-1.609-0.767
				s-0.849-0.716-1.134-1.194c-0.286-0.48-0.429-1.068-0.429-1.762c0-1.022,0.199-1.86,0.598-2.514
				c0.398-0.652,0.924-1.169,1.578-1.547c0.655-0.377,1.39-0.643,2.206-0.796c0.818-0.153,1.656-0.229,2.514-0.229
				s1.689,0.081,2.497,0.245c0.809,0.164,1.529,0.439,2.162,0.827c0.634,0.388,1.159,0.904,1.579,1.546
				c0.418,0.646,0.669,1.457,0.751,2.438h-4.138c-0.062-0.837-0.378-1.405-0.951-1.702c-0.573-0.295-1.245-0.444-2.021-0.444
				c-0.245,0-0.511,0.016-0.797,0.046c-0.287,0.031-0.547,0.097-0.782,0.199c-0.234,0.102-0.434,0.25-0.599,0.444
				c-0.163,0.195-0.243,0.455-0.243,0.782c0,0.387,0.142,0.706,0.43,0.951c0.285,0.245,0.656,0.443,1.116,0.598
				c0.459,0.154,0.986,0.292,1.579,0.415c0.593,0.12,1.195,0.255,1.81,0.397c0.632,0.144,1.251,0.317,1.853,0.521
				c0.604,0.203,1.14,0.476,1.609,0.813c0.471,0.336,0.849,0.756,1.135,1.256c0.286,0.501,0.429,1.117,0.429,1.854
				c0,1.042-0.21,1.915-0.629,2.622c-0.42,0.704-0.965,1.271-1.64,1.699c-0.673,0.43-1.444,0.731-2.312,0.906
				c-0.87,0.172-1.754,0.259-2.652,0.259c-0.919,0-1.819-0.091-2.698-0.275c-0.878-0.185-1.659-0.489-2.345-0.919
				c-0.684-0.429-1.245-0.996-1.685-1.701c-0.439-0.706-0.68-1.588-0.722-2.652h4.139C69.392,18.606,69.489,19.012,69.684,19.348z"
				/>
		</g>
	</g>
</g>
</svg>
