<?xml version="1.0" encoding="utf-8"?>
<!-- Generator: Adobe Illustrator 15.1.0, SVG Export Plug-In . SVG Version: 6.00 Build 0)  -->
<!DOCTYPE svg PUBLIC "-//W3C//DTD SVG 1.1//EN" "http://www.w3.org/Graphics/SVG/1.1/DTD/svg11.dtd">
<svg version="1.1" id="Layer_1" xmlns="http://www.w3.org/2000/svg" xmlns:xlink="http://www.w3.org/1999/xlink" x="0px" y="0px"
	 width="80px" height="24px" viewBox="0 0 80 24" enable-background="new 0 0 80 24" xml:space="preserve">
<path fill="#FFFFFF" d="M11.989,21.092c-0.103,0.289-0.237,0.713-0.401,1.28c-0.658,0.458-1.39,0.761-2.191,0.899
	c-0.803,0.139-1.614,0.21-2.435,0.21c-1.194,0-2.231-0.179-3.116-0.54c-0.883-0.36-1.605-0.857-2.169-1.495
	c-0.565-0.636-0.985-1.375-1.262-2.207C0.138,18.406,0,17.536,0,16.631c0-1.007,0.169-2.016,0.506-3.021
	c0.34-1.007,0.85-1.913,1.527-2.717c0.68-0.801,1.521-1.455,2.531-1.958C5.571,8.429,6.743,8.176,8.08,8.176
	c1.911,0,3.357,0.508,4.333,1.525c0.978,1.019,1.466,2.35,1.466,3.991c0,0.391-0.026,0.786-0.077,1.189
	c-0.051,0.399-0.108,0.794-0.17,1.185c-1.293-0.046-2.383-0.083-3.265-0.106c-0.882-0.024-1.665-0.037-2.341-0.037h-1.42
	c-0.268,0-0.585,0-0.957,0c-0.347,0-0.758,0.019-1.228,0.05c-0.049,0.247-0.084,0.517-0.107,0.809
	c-0.024,0.292-0.036,0.583-0.036,0.871c0,1.25,0.287,2.248,0.863,2.996c0.576,0.747,1.513,1.12,2.807,1.12
	c0.577,0,1.219-0.128,1.929-0.385c0.71-0.256,1.361-0.693,1.959-1.311L12.3,20.29C12.194,20.537,12.093,20.804,11.989,21.092z
	 M9.675,10.291C9.409,9.8,8.893,9.555,8.133,9.555c-0.515,0-0.962,0.145-1.342,0.429c-0.381,0.285-0.71,0.665-0.988,1.132
	c-0.278,0.47-0.508,1.006-0.693,1.607c-0.185,0.603-0.349,1.211-0.492,1.822c0.164,0.017,0.339,0.026,0.524,0.036
	c0.185,0.009,0.359,0.01,0.525,0.01h1.14h1.266c0.226,0,0.482-0.001,0.771-0.01c0.287-0.01,0.594-0.02,0.926-0.036
	c0.061-0.266,0.126-0.621,0.201-1.072c0.072-0.449,0.108-0.94,0.108-1.47C10.076,11.352,9.943,10.781,9.675,10.291z"/>
<path fill="#FFFFFF" d="M31.399,18.244c0.038,1.687,0.097,3.362,0.177,5.027c-0.268-0.038-0.606-0.06-1.016-0.06
	c-0.413,0-0.841,0-1.295,0c-0.41,0-0.804,0-1.185,0c-0.38,0-0.671,0.021-0.877,0.06c0.021-0.038,0.042-0.171,0.062-0.399
	c0.02-0.226,0.046-0.481,0.076-0.771c0.032-0.287,0.057-0.555,0.079-0.802c0.02-0.247,0.03-0.403,0.03-0.463l-0.062-0.062
	c-0.392,0.924-0.926,1.64-1.605,2.144c-0.679,0.499-1.616,0.754-2.81,0.754c-1.048,0-1.944-0.201-2.685-0.603
	c-0.741-0.401-1.348-0.96-1.821-1.682c-0.474-0.718-0.824-1.561-1.049-2.529c-0.226-0.966-0.34-2.004-0.34-3.113
	s0.154-2.132,0.464-3.069c0.308-0.936,0.73-1.748,1.265-2.434c0.537-0.69,1.17-1.229,1.899-1.622c0.732-0.39,1.51-0.585,2.334-0.585
	c0.927,0,1.755,0.215,2.485,0.646c0.732,0.43,1.273,0.973,1.623,1.63h0.053c0-1.852-0.02-3.596-0.06-5.232
	C27.103,3.442,27.044,1.749,26.965,0c0.266,0.041,0.604,0.073,1.012,0.101c0.412,0.028,0.84,0.044,1.292,0.044
	c0.451,0,0.882-0.016,1.291-0.044c0.411-0.028,0.749-0.06,1.015-0.101c-0.08,1.729-0.139,3.438-0.177,5.125
	c-0.04,1.688-0.06,3.54-0.06,5.556v2.004C31.339,14.704,31.359,16.558,31.399,18.244z M21.858,18.873
	c0.146,0.718,0.34,1.299,0.587,1.742c0.248,0.444,0.531,0.764,0.851,0.958c0.318,0.195,0.655,0.292,1.004,0.292
	c0.845,0,1.54-0.479,2.084-1.435c0.547-0.957,0.819-2.546,0.819-4.769c0-1.912-0.257-3.306-0.772-4.178
	c-0.515-0.874-1.173-1.313-1.978-1.313c-0.328,0-0.657,0.092-0.988,0.277c-0.33,0.187-0.629,0.51-0.895,0.974
	c-0.27,0.462-0.49,1.085-0.665,1.864c-0.176,0.782-0.262,1.759-0.262,2.931C21.644,17.268,21.714,18.154,21.858,18.873z"/>
<path fill="#FFFFFF" d="M46.605,21.092c-0.102,0.289-0.238,0.713-0.4,1.28c-0.66,0.458-1.391,0.761-2.191,0.899
	c-0.8,0.139-1.612,0.21-2.435,0.21c-1.194,0-2.231-0.179-3.114-0.54c-0.884-0.36-1.609-0.857-2.174-1.495
	c-0.562-0.636-0.983-1.375-1.261-2.207c-0.276-0.833-0.416-1.703-0.416-2.609c0-1.007,0.17-2.016,0.51-3.021
	c0.338-1.007,0.847-1.912,1.526-2.717c0.679-0.801,1.523-1.455,2.529-1.957c1.008-0.506,2.182-0.759,3.518-0.759
	c1.91,0,3.357,0.508,4.334,1.525c0.976,1.019,1.462,2.349,1.462,3.991c0,0.392-0.024,0.785-0.079,1.19
	c-0.049,0.399-0.104,0.794-0.167,1.184c-1.294-0.047-2.381-0.083-3.265-0.105c-0.884-0.024-1.666-0.038-2.344-0.038h-1.415
	c-0.268,0-0.589,0-0.955,0c-0.348,0-0.76,0.02-1.234,0.05c-0.047,0.248-0.081,0.518-0.106,0.81
	c-0.024,0.292-0.036,0.583-0.036,0.871c0,1.249,0.289,2.247,0.864,2.996c0.573,0.746,1.51,1.12,2.807,1.12
	c0.574,0,1.221-0.128,1.928-0.386c0.71-0.256,1.362-0.693,1.959-1.312l0.466,0.218C46.812,20.537,46.706,20.804,46.605,21.092z
	 M44.294,10.291c-0.27-0.491-0.782-0.736-1.544-0.736c-0.515,0-0.961,0.146-1.343,0.429c-0.382,0.286-0.709,0.665-0.985,1.132
	c-0.277,0.469-0.512,1.007-0.693,1.608c-0.187,0.602-0.35,1.209-0.495,1.82c0.165,0.02,0.338,0.026,0.524,0.036
	c0.185,0.009,0.359,0.012,0.523,0.012h1.145h1.263c0.227,0,0.482-0.003,0.77-0.012c0.29-0.01,0.597-0.018,0.93-0.036
	c0.061-0.265,0.125-0.621,0.198-1.071c0.072-0.448,0.109-0.939,0.109-1.469C44.693,11.352,44.56,10.781,44.294,10.291z"/>
<path fill="#FFFFFF" d="M76.983,11.609c-0.095-0.29-0.252-0.574-0.477-0.864c-0.225-0.29-0.527-0.535-0.905-0.74
	c-0.379-0.204-0.876-0.309-1.49-0.309c-0.797,0-1.414,0.191-1.854,0.569c-0.44,0.382-0.658,0.838-0.658,1.373
	c0,0.266,0.049,0.503,0.152,0.706c0.104,0.207,0.283,0.413,0.537,0.617c0.256,0.205,0.601,0.423,1.029,0.661
	c0.433,0.236,0.966,0.517,1.603,0.847c0.817,0.45,1.517,0.984,2.09,1.601c0.573,0.614,0.86,1.436,0.86,2.461
	c0,0.904-0.184,1.686-0.555,2.34c-0.369,0.656-0.86,1.197-1.479,1.615c-0.614,0.42-1.306,0.723-2.076,0.908
	c-0.771,0.184-1.557,0.276-2.356,0.276c-0.749,0-1.463-0.077-2.147-0.229c-0.685-0.157-1.351-0.399-2.012-0.729
	c0.226-0.517,0.408-1.022,0.539-1.526c0.134-0.507,0.243-1.024,0.326-1.558h0.586c0.062,0.431,0.202,0.816,0.416,1.155
	c0.217,0.339,0.481,0.62,0.788,0.847c0.31,0.229,0.653,0.402,1.021,0.525c0.374,0.123,0.758,0.185,1.147,0.185
	c0.743,0,1.356-0.2,1.84-0.601c0.483-0.403,0.728-0.868,0.728-1.401c0-0.596-0.241-1.069-0.726-1.418
	c-0.483-0.35-1.158-0.761-2.021-1.234c-0.392-0.205-0.786-0.425-1.176-0.661c-0.389-0.236-0.742-0.518-1.048-0.849
	c-0.311-0.327-0.557-0.712-0.742-1.154c-0.184-0.443-0.277-0.982-0.277-1.618c0-0.619,0.124-1.232,0.37-1.849
	c0.249-0.618,0.618-1.173,1.116-1.666c0.492-0.493,1.114-0.893,1.854-1.203c0.743-0.307,1.608-0.463,2.602-0.463
	c0.913,0,1.711,0.11,2.393,0.329c0.685,0.219,1.257,0.434,1.734,0.643c-0.289,0.561-0.5,1.127-0.633,1.703
	c-0.134,0.576-0.221,1.051-0.263,1.418h-0.645C77.139,12.134,77.073,11.899,76.983,11.609z"/>
<path fill="#FFFFFF" d="M6.879,4.714c0,0,0.292-0.985,0.524-2.305c0.232-1.322,0.291-2.32,0.291-2.32s0.966,0.117,2.284,0.117
	c1.323,0,2.341-0.117,2.341-0.117s-0.291,0.987-0.524,2.306c-0.235,1.322-0.292,2.318-0.292,2.318s-0.964-0.115-2.284-0.115
	C7.896,4.599,6.879,4.714,6.879,4.714z"/>
<path fill="#FFFFFF" d="M64.072,22.205c-0.071,0.041-0.16,0.062-0.261,0.062c-0.351,0-0.578-0.142-0.679-0.429
	c-0.103-0.29-0.155-0.556-0.155-0.804c0-0.205,0.023-0.477,0.062-0.816c0.041-0.339,0.144-0.868,0.313-1.585l0.828-3.848
	c0.082-0.35,0.172-0.793,0.27-1.324c0.099-0.535,0.149-1.024,0.149-1.479c0-0.719-0.14-1.32-0.419-1.803
	c-0.276-0.482-0.646-0.865-1.099-1.153c-0.377-0.239-0.795-0.416-1.249-0.542l0.002-0.003c-0.031-0.007-0.065-0.014-0.103-0.023
	c-0.061-0.016-0.121-0.036-0.183-0.048c-0.035-0.007-0.072-0.009-0.106-0.018c-0.224-0.044-0.45-0.081-0.685-0.11
	c-0.051-0.005-0.104-0.01-0.154-0.015c-0.967-0.103-1.982-0.074-2.799,0.053c-0.812,0.124-1.605,0.316-2.378,0.576
	c-0.77,0.258-1.447,0.667-2.028,1.223c-0.079,0.58-0.146,1.023-0.206,1.322c-0.056,0.301-0.121,0.583-0.183,0.839l0.491,0.146
	c0.377-0.532,0.804-0.965,1.274-1.301c0.37-0.243,0.751-0.441,1.141-0.594c0.524-0.207,1.11-0.31,1.752-0.31
	c0.312,0,0.625,0.039,0.947,0.108c0.32,0.072,0.613,0.2,0.871,0.385c0.256,0.185,0.468,0.427,0.634,0.725
	c0.163,0.297,0.248,0.684,0.248,1.157c0,0.432-0.037,0.766-0.108,1.002c-0.073,0.235-0.197,0.416-0.373,0.54
	c-0.173,0.122-0.412,0.212-0.713,0.263c-0.299,0.051-0.689,0.108-1.162,0.169c-0.642,0.084-1.313,0.175-2.017,0.277
	c-0.703,0.102-1.291,0.227-1.768,0.374c-1.076,0.326-1.896,0.912-2.466,1.754c-0.567,0.845-0.853,1.76-0.853,2.747
	c0,1.235,0.364,2.198,1.096,2.901c0.729,0.697,1.709,1.048,2.944,1.048c1.015,0,1.849-0.172,2.504-0.51
	c0.654-0.339,1.228-0.939,1.728-1.804c0.037,0.164,0.104,0.37,0.197,0.627c0.095,0.253,0.241,0.499,0.447,0.731
	c0.207,0.237,0.491,0.43,0.852,0.584c0.36,0.151,0.817,0.228,1.374,0.228c0.657,0,1.169-0.071,1.527-0.216
	c0.359-0.144,0.686-0.319,0.973-0.523l-0.248-0.709C64.225,22.124,64.146,22.163,64.072,22.205z M59.489,17.881
	c-0.084,0.389-0.176,0.811-0.278,1.262c-0.103,0.455-0.254,0.865-0.448,1.235c-0.195,0.372-0.45,0.68-0.761,0.928
	c-0.309,0.245-0.701,0.368-1.172,0.368c-0.621,0-1.049-0.212-1.288-0.633c-0.236-0.42-0.355-0.898-0.355-1.436
	c0-0.575,0.104-1.171,0.31-1.789c0.209-0.619,0.558-1.081,1.052-1.391c0.352-0.227,0.773-0.401,1.271-0.523
	c0.493-0.123,1.203-0.261,2.135-0.401L59.489,17.881z"/>
</svg>
