<?xml version="1.0" encoding="utf-8"?>
<!-- Generator: Adobe Illustrator 15.1.0, SVG Export Plug-In . SVG Version: 6.00 Build 0)  -->
<!DOCTYPE svg PUBLIC "-//W3C//DTD SVG 1.1//EN" "http://www.w3.org/Graphics/SVG/1.1/DTD/svg11.dtd">
<svg version="1.1" id="Layer_1" xmlns="http://www.w3.org/2000/svg" xmlns:xlink="http://www.w3.org/1999/xlink" x="0px" y="0px"
	 width="130px" height="39.448px" viewBox="0 0 130 39.448" enable-background="new 0 0 130 39.448" xml:space="preserve">
<g>
	<path fill="#999999" d="M19.817,34.863c-0.17,0.478-0.392,1.179-0.662,2.114c-1.089,0.758-2.298,1.258-3.623,1.486
		c-1.327,0.229-2.667,0.348-4.024,0.348c-1.974,0-3.688-0.295-5.15-0.893c-1.46-0.597-2.654-1.418-3.586-2.473
		c-0.935-1.052-1.629-2.271-2.087-3.648C0.227,30.422,0,28.985,0,27.488c0-1.664,0.279-3.331,0.836-4.993
		c0.562-1.664,1.405-3.162,2.525-4.491c1.123-1.324,2.514-2.405,4.184-3.236c1.663-0.836,3.601-1.254,5.81-1.254
		c3.158,0,5.549,0.84,7.161,2.521c1.616,1.684,2.424,3.883,2.424,6.596c0,0.646-0.042,1.3-0.126,1.968
		c-0.085,0.659-0.178,1.312-0.282,1.957c-2.138-0.076-3.938-0.138-5.397-0.177c-1.458-0.041-2.75-0.061-3.869-0.061h-2.347
		c-0.443,0-0.967,0-1.581,0c-0.575,0-1.254,0.029-2.031,0.082c-0.08,0.408-0.138,0.854-0.176,1.337
		c-0.041,0.481-0.059,0.964-0.059,1.44c0,2.062,0.474,3.715,1.426,4.949s2.501,1.854,4.64,1.854c0.954,0,2.015-0.211,3.188-0.637
		c1.173-0.424,2.25-1.146,3.238-2.166l0.767,0.357C20.156,33.944,19.989,34.385,19.817,34.863z M15.993,17.009
		c-0.441-0.812-1.294-1.218-2.55-1.218c-0.851,0-1.591,0.239-2.218,0.709c-0.63,0.471-1.173,1.097-1.632,1.871
		c-0.46,0.777-0.84,1.662-1.146,2.657C8.14,22.023,7.87,23.029,7.633,24.04c0.271,0.028,0.56,0.045,0.867,0.061
		c0.305,0.015,0.594,0.02,0.868,0.02h1.884h2.093c0.373,0,0.796-0.005,1.274-0.02c0.475-0.016,0.982-0.031,1.531-0.061
		c0.101-0.438,0.209-1.027,0.332-1.771c0.119-0.742,0.178-1.553,0.178-2.429C16.655,18.762,16.436,17.818,15.993,17.009z"/>
	<path fill="#999999" d="M51.901,30.155c0.064,2.789,0.161,5.559,0.293,8.312c-0.443-0.062-1.002-0.1-1.68-0.1
		c-0.682,0-1.39,0-2.141,0c-0.678,0-1.329,0-1.958,0s-1.11,0.033-1.45,0.1c0.035-0.062,0.069-0.284,0.103-0.661
		c0.033-0.373,0.076-0.796,0.125-1.271c0.053-0.478,0.094-0.918,0.131-1.326c0.032-0.41,0.05-0.666,0.05-0.767l-0.104-0.104
		c-0.647,1.529-1.531,2.711-2.653,3.543c-1.121,0.826-2.67,1.246-4.644,1.246c-1.733,0-3.213-0.332-4.437-0.996
		c-1.225-0.664-2.228-1.586-3.01-2.776c-0.783-1.188-1.362-2.58-1.734-4.183c-0.373-1.598-0.562-3.312-0.562-5.146
		s0.254-3.524,0.767-5.071c0.509-1.547,1.207-2.889,2.09-4.024c0.888-1.14,1.935-2.032,3.14-2.68
		c1.21-0.645,2.495-0.968,3.858-0.968c1.532,0,2.901,0.354,4.107,1.066c1.21,0.711,2.104,1.61,2.682,2.695h0.088
		c0-3.062-0.033-5.945-0.098-8.649C44.8,5.69,44.702,2.891,44.572,0c0.439,0.067,0.997,0.12,1.672,0.167
		c0.68,0.046,1.389,0.072,2.137,0.072c0.744,0,1.457-0.025,2.133-0.072c0.68-0.047,1.237-0.1,1.678-0.167
		c-0.132,2.858-0.23,5.683-0.293,8.471c-0.066,2.79-0.099,5.852-0.099,9.184v3.312C51.802,24.303,51.834,27.366,51.901,30.155z
		 M36.13,31.194c0.241,1.188,0.562,2.146,0.97,2.883c0.41,0.732,0.878,1.26,1.406,1.582c0.526,0.322,1.082,0.482,1.659,0.482
		c1.397,0,2.545-0.793,3.446-2.371c0.904-1.582,1.354-4.209,1.354-7.887c0-3.156-0.424-5.461-1.276-6.903
		c-0.851-1.445-1.94-2.17-3.269-2.17c-0.543,0-1.087,0.151-1.633,0.457c-0.546,0.309-1.04,0.844-1.48,1.61
		c-0.445,0.763-0.81,1.793-1.099,3.081c-0.29,1.293-0.433,2.907-0.433,4.846C35.776,28.542,35.892,30.004,36.13,31.194z"/>
	<path fill="#999999" d="M77.035,34.863c-0.167,0.478-0.393,1.179-0.66,2.114c-1.092,0.758-2.299,1.258-3.622,1.486
		c-1.323,0.229-2.665,0.348-4.026,0.348c-1.972,0-3.688-0.295-5.146-0.893c-1.462-0.597-2.66-1.418-3.594-2.473
		c-0.93-1.052-1.625-2.271-2.083-3.648c-0.458-1.375-0.687-2.812-0.687-4.312c0-1.663,0.28-3.33,0.842-4.992
		c0.558-1.664,1.399-3.162,2.522-4.491c1.122-1.324,2.517-2.405,4.18-3.236c1.667-0.836,3.606-1.254,5.816-1.254
		c3.157,0,5.548,0.84,7.164,2.521c1.61,1.684,2.416,3.883,2.416,6.596c0,0.646-0.041,1.3-0.13,1.968
		c-0.082,0.659-0.174,1.312-0.277,1.957c-2.139-0.076-3.936-0.138-5.396-0.177c-1.461-0.041-2.754-0.062-3.873-0.062h-2.34
		c-0.441,0-0.973,0-1.578,0c-0.576,0-1.255,0.031-2.041,0.082c-0.078,0.41-0.135,0.854-0.174,1.338
		c-0.041,0.481-0.061,0.966-0.061,1.441c0,2.062,0.478,3.713,1.43,4.95c0.947,1.232,2.495,1.853,4.639,1.853
		c0.949,0,2.018-0.211,3.188-0.64c1.174-0.42,2.251-1.146,3.239-2.166l0.769,0.361C77.379,33.944,77.202,34.385,77.035,34.863z
		 M73.215,17.009c-0.445-0.812-1.293-1.216-2.551-1.216c-0.852,0-1.59,0.239-2.221,0.709c-0.631,0.473-1.172,1.099-1.629,1.871
		c-0.457,0.775-0.848,1.664-1.146,2.657c-0.309,0.995-0.579,1.999-0.818,3.012c0.272,0.031,0.558,0.043,0.867,0.059
		c0.307,0.018,0.594,0.021,0.865,0.021h1.893h2.088c0.375,0,0.797-0.004,1.271-0.021c0.479-0.016,0.984-0.028,1.537-0.059
		c0.102-0.438,0.206-1.027,0.324-1.771c0.121-0.741,0.184-1.553,0.184-2.43C73.875,18.762,73.654,17.818,73.215,17.009z"/>
	<path fill="#999999" d="M127.248,19.188c-0.155-0.478-0.415-0.95-0.785-1.428c-0.372-0.478-0.873-0.884-1.497-1.224
		c-0.626-0.337-1.448-0.51-2.464-0.51c-1.316,0-2.337,0.315-3.064,0.941c-0.729,0.63-1.09,1.385-1.09,2.269
		c0,0.438,0.082,0.831,0.254,1.167c0.172,0.342,0.467,0.682,0.887,1.02c0.426,0.34,0.992,0.699,1.701,1.094
		c0.715,0.393,1.599,0.854,2.648,1.398c1.354,0.744,2.508,1.627,3.456,2.646c0.948,1.015,1.421,2.373,1.421,4.065
		c0,1.494-0.302,2.785-0.917,3.869c-0.61,1.082-1.422,1.979-2.442,2.668c-1.016,0.693-2.16,1.193-3.434,1.502
		c-1.273,0.306-2.572,0.455-3.895,0.455c-1.238,0-2.418-0.127-3.549-0.379c-1.131-0.26-2.234-0.66-3.326-1.205
		c0.373-0.854,0.675-1.688,0.891-2.522c0.223-0.836,0.402-1.691,0.541-2.574h0.967c0.102,0.713,0.334,1.351,0.688,1.91
		c0.358,0.562,0.797,1.024,1.304,1.399c0.514,0.379,1.081,0.664,1.688,0.867c0.617,0.203,1.252,0.305,1.896,0.305
		c1.229,0,2.242-0.33,3.041-0.991c0.8-0.666,1.202-1.437,1.202-2.316c0-0.983-0.396-1.768-1.197-2.344
		c-0.8-0.578-1.915-1.258-3.342-2.041c-0.646-0.338-1.298-0.701-1.94-1.092c-0.645-0.394-1.229-0.855-1.732-1.402
		c-0.514-0.541-0.922-1.178-1.227-1.909c-0.306-0.732-0.459-1.623-0.459-2.675c0-1.021,0.203-2.037,0.608-3.056
		c0.414-1.022,1.022-1.938,1.847-2.752c0.814-0.815,1.844-1.476,3.064-1.988c1.229-0.508,2.656-0.765,4.3-0.765
		c1.511,0,2.828,0.181,3.955,0.544c1.131,0.362,2.077,0.717,2.864,1.062c-0.479,0.926-0.825,1.863-1.047,2.815
		c-0.221,0.952-0.362,1.735-0.434,2.345h-1.064C127.506,20.056,127.398,19.667,127.248,19.188z"/>
	<path fill="#999999" d="M11.37,7.791c0,0,0.482-1.629,0.867-3.811c0.384-2.185,0.48-3.834,0.48-3.834s1.596,0.194,3.775,0.194
		c2.187,0,3.87-0.194,3.87-0.194s-0.482,1.632-0.867,3.812c-0.388,2.185-0.482,3.832-0.482,3.832s-1.594-0.191-3.775-0.191
		C13.052,7.6,11.37,7.791,11.37,7.791z"/>
	<path fill="#999999" d="M105.909,36.704c-0.118,0.066-0.265,0.103-0.433,0.103c-0.578,0-0.955-0.233-1.121-0.709
		c-0.17-0.479-0.256-0.918-0.256-1.328c0-0.338,0.037-0.787,0.101-1.351c0.069-0.559,0.237-1.434,0.518-2.619l1.369-6.36
		c0.136-0.575,0.285-1.31,0.446-2.188c0.162-0.883,0.246-1.69,0.246-2.442c0-1.189-0.231-2.182-0.692-2.98
		c-0.457-0.797-1.065-1.43-1.815-1.906c-0.623-0.395-1.312-0.688-2.062-0.897l0.004-0.005c-0.053-0.012-0.107-0.023-0.171-0.038
		c-0.101-0.027-0.201-0.059-0.304-0.08c-0.059-0.012-0.117-0.015-0.176-0.03c-0.369-0.072-0.744-0.133-1.131-0.181
		c-0.084-0.009-0.172-0.017-0.255-0.024c-1.598-0.171-3.278-0.122-4.628,0.087c-1.342,0.205-2.652,0.523-3.929,0.952
		c-1.274,0.427-2.394,1.102-3.354,2.022c-0.129,0.96-0.24,1.692-0.339,2.185c-0.093,0.497-0.2,0.963-0.303,1.388l0.812,0.238
		c0.623-0.879,1.328-1.595,2.105-2.15c0.613-0.402,1.242-0.729,1.887-0.982c0.867-0.34,1.836-0.512,2.896-0.512
		c0.517,0,1.031,0.064,1.566,0.178c0.525,0.122,1.014,0.332,1.438,0.637c0.423,0.307,0.773,0.706,1.047,1.199
		c0.271,0.493,0.41,1.131,0.41,1.91c0,0.717-0.061,1.268-0.18,1.658c-0.121,0.389-0.326,0.688-0.615,0.895
		c-0.286,0.2-0.682,0.351-1.18,0.435c-0.494,0.084-1.142,0.18-1.92,0.278c-1.062,0.14-2.17,0.289-3.334,0.459
		c-1.162,0.168-2.136,0.373-2.923,0.617c-1.778,0.539-3.133,1.508-4.075,2.896c-0.938,1.396-1.408,2.91-1.408,4.541
		c0,2.043,0.603,3.635,1.812,4.797c1.202,1.152,2.824,1.732,4.867,1.732c1.677,0,3.054-0.283,4.137-0.844
		c1.081-0.562,2.028-1.554,2.856-2.98c0.062,0.271,0.171,0.611,0.324,1.035c0.156,0.42,0.397,0.826,0.74,1.211
		c0.342,0.391,0.812,0.709,1.406,0.965c0.596,0.25,1.352,0.375,2.271,0.375c1.086,0,1.932-0.117,2.522-0.355
		c0.597-0.236,1.136-0.527,1.606-0.865l-0.408-1.172C106.159,36.567,106.029,36.633,105.909,36.704z M98.333,29.553
		c-0.14,0.646-0.29,1.34-0.461,2.088c-0.169,0.752-0.419,1.432-0.741,2.041c-0.322,0.613-0.744,1.123-1.256,1.531
		s-1.159,0.611-1.938,0.611c-1.026,0-1.734-0.353-2.129-1.048c-0.394-0.694-0.588-1.485-0.588-2.371c0-0.952,0.17-1.938,0.512-2.959
		c0.346-1.021,0.922-1.786,1.738-2.299c0.581-0.373,1.275-0.664,2.102-0.864c0.814-0.203,1.99-0.431,3.527-0.664L98.333,29.553z"/>
</g>
</svg>
