<?xml version="1.0" encoding="utf-8"?>
<!-- Generator: Adobe Illustrator 15.1.0, SVG Export Plug-In . SVG Version: 6.00 Build 0)  -->
<!DOCTYPE svg PUBLIC "-//W3C//DTD SVG 1.1//EN" "http://www.w3.org/Graphics/SVG/1.1/DTD/svg11.dtd">
<svg version="1.1" id="Layer_1" xmlns="http://www.w3.org/2000/svg" xmlns:xlink="http://www.w3.org/1999/xlink" x="0px" y="0px"
	 width="130px" height="39.449px" viewBox="0 0 130 39.449" enable-background="new 0 0 130 39.449" xml:space="preserve">
<g>
	<path fill="#999999" d="M9.532,8.74c0,0,0.966-1.531,0.966-3.59c0-2.039-0.978-3.592-0.978-3.592s1.53,0.978,3.587,0.978
		c2.052,0,3.607-0.978,3.607-0.978s-0.979,1.526-0.985,3.582c-0.006,2.051,0.975,3.6,0.975,3.6s-1.531-0.979-3.575-0.979
		C11.075,7.761,9.532,8.74,9.532,8.74z"/>
	<g>
		<g>
			<path fill="#999999" d="M8.794,32.642c1.06,1.026,2.583,1.539,4.572,1.539c1.424,0,2.65-0.356,3.676-1.069
				c1.028-0.711,1.657-1.466,1.89-2.259h6.211c-0.994,3.08-2.517,5.282-4.572,6.609c-2.053,1.323-4.538,1.986-7.453,1.986
				c-2.021,0-3.844-0.323-5.467-0.969c-1.622-0.647-2.998-1.565-4.125-2.759c-1.125-1.192-1.995-2.617-2.607-4.272
				C0.305,29.791,0,27.97,0,25.982c0-1.921,0.313-3.711,0.942-5.367c0.63-1.656,1.524-3.088,2.685-4.297
				c1.16-1.209,2.542-2.163,4.147-2.859c1.608-0.694,3.387-1.042,5.343-1.042c2.187,0,4.09,0.423,5.715,1.267
				c1.623,0.846,2.956,1.98,4,3.402c1.044,1.427,1.796,3.05,2.262,4.872c0.463,1.82,0.629,3.726,0.498,5.714H7.055
				C7.156,29.958,7.734,31.614,8.794,32.642z M16.77,19.125c-0.844-0.927-2.128-1.392-3.851-1.392c-1.126,0-2.061,0.19-2.808,0.572
				c-0.746,0.38-1.341,0.853-1.789,1.415c-0.447,0.564-0.762,1.159-0.944,1.789c-0.183,0.631-0.29,1.193-0.324,1.69h11.479
				C18.202,21.411,17.615,20.053,16.77,19.125z"/>
			<path fill="#999999" d="M46.015,35.524c-0.83,1.391-1.914,2.394-3.255,3.006c-1.341,0.611-2.858,0.919-4.548,0.919
				c-1.922,0-3.609-0.371-5.067-1.118c-1.459-0.747-2.659-1.756-3.604-3.032c-0.945-1.272-1.657-2.739-2.136-4.396
				c-0.482-1.656-0.72-3.379-0.72-5.168c0-1.723,0.238-3.387,0.72-4.995c0.479-1.606,1.191-3.022,2.136-4.248
				s2.129-2.211,3.553-2.956c1.424-0.746,3.081-1.118,4.97-1.118c1.522,0,2.973,0.323,4.348,0.969
				c1.374,0.646,2.46,1.599,3.255,2.855h0.099V1.729h7.057v37.074h-6.708v-3.279H46.015z M45.716,22.827
				c-0.198-0.978-0.538-1.84-1.018-2.585c-0.482-0.744-1.103-1.35-1.863-1.812c-0.763-0.463-1.724-0.696-2.883-0.696
				c-1.16,0-2.136,0.233-2.932,0.696s-1.434,1.076-1.914,1.838c-0.482,0.764-0.827,1.633-1.044,2.609
				c-0.215,0.977-0.321,1.995-0.321,3.058c0,0.992,0.115,1.986,0.348,2.979c0.231,0.994,0.603,1.88,1.117,2.658
				c0.513,0.779,1.159,1.409,1.938,1.891c0.779,0.479,1.715,0.719,2.808,0.719c1.159,0,2.128-0.232,2.907-0.696
				c0.777-0.463,1.398-1.084,1.864-1.862c0.463-0.779,0.795-1.665,0.993-2.658c0.198-0.994,0.299-2.021,0.299-3.082
				C46.015,24.824,45.914,23.804,45.716,22.827z"/>
			<path fill="#999999" d="M62.711,32.642c1.06,1.026,2.583,1.539,4.572,1.539c1.426,0,2.649-0.356,3.677-1.069
				c1.027-0.711,1.657-1.466,1.89-2.259h6.21c-0.992,3.08-2.518,5.282-4.571,6.609c-2.054,1.323-4.54,1.986-7.453,1.986
				c-2.021,0-3.844-0.323-5.466-0.969c-1.625-0.647-3.001-1.565-4.126-2.759c-1.127-1.192-1.997-2.617-2.607-4.272
				c-0.615-1.658-0.921-3.479-0.921-5.467c0-1.921,0.313-3.711,0.945-5.367c0.629-1.656,1.523-3.088,2.682-4.297
				c1.16-1.209,2.543-2.163,4.149-2.859c1.607-0.694,3.386-1.042,5.343-1.042c2.185,0,4.091,0.423,5.715,1.267
				c1.622,0.846,2.955,1.98,4,3.402c1.044,1.427,1.797,3.05,2.262,4.872c0.463,1.82,0.629,3.726,0.495,5.714H60.972
				C61.071,29.958,61.652,31.614,62.711,32.642z M70.687,19.125c-0.845-0.927-2.128-1.392-3.853-1.392
				c-1.124,0-2.061,0.19-2.806,0.572c-0.747,0.38-1.343,0.853-1.788,1.415c-0.449,0.564-0.763,1.159-0.945,1.789
				c-0.182,0.631-0.292,1.193-0.323,1.69H72.45C72.12,21.411,71.532,20.053,70.687,19.125z"/>
			<path fill="#999999" d="M80.898,21.012c0.101-1.657,0.513-3.031,1.243-4.124c0.728-1.094,1.656-1.972,2.781-2.634
				c1.128-0.661,2.393-1.134,3.802-1.415c1.408-0.283,2.824-0.423,4.249-0.423c1.292,0,2.602,0.091,3.926,0.272
				c1.325,0.183,2.535,0.54,3.628,1.068c1.092,0.53,1.988,1.267,2.683,2.211c0.696,0.945,1.044,2.195,1.044,3.752v13.367
				c0,1.16,0.066,2.27,0.199,3.33s0.363,1.855,0.694,2.386h-7.155c-0.132-0.399-0.241-0.804-0.323-1.22
				c-0.084-0.412-0.141-0.834-0.174-1.266c-1.125,1.16-2.45,1.973-3.974,2.435c-1.523,0.465-3.081,0.696-4.674,0.696
				c-1.224,0-2.367-0.148-3.427-0.448c-1.063-0.298-1.989-0.762-2.784-1.391c-0.794-0.628-1.415-1.423-1.861-2.385
				c-0.449-0.96-0.671-2.104-0.671-3.432c0-1.456,0.254-2.656,0.769-3.601c0.514-0.943,1.178-1.697,1.986-2.259
				c0.813-0.563,1.741-0.987,2.784-1.271c1.043-0.279,2.096-0.503,3.156-0.67c1.06-0.164,2.104-0.297,3.132-0.396
				c1.024-0.101,1.938-0.25,2.732-0.447c0.796-0.2,1.423-0.489,1.888-0.87c0.463-0.38,0.678-0.938,0.646-1.665
				c0-0.76-0.123-1.367-0.372-1.814c-0.249-0.446-0.581-0.795-0.996-1.043c-0.412-0.246-0.892-0.414-1.438-0.496
				c-0.548-0.082-1.135-0.125-1.766-0.125c-1.392,0-2.483,0.297-3.28,0.896c-0.794,0.594-1.257,1.59-1.39,2.979H80.898z
				 M97.197,26.23c-0.298,0.266-0.67,0.474-1.118,0.62c-0.445,0.15-0.927,0.275-1.441,0.374c-0.514,0.099-1.052,0.182-1.614,0.25
				c-0.564,0.065-1.126,0.147-1.691,0.248c-0.527,0.098-1.05,0.23-1.564,0.397c-0.514,0.165-0.96,0.387-1.341,0.671
				c-0.38,0.284-0.688,0.638-0.918,1.067c-0.232,0.432-0.348,0.978-0.348,1.64c0,0.63,0.115,1.16,0.348,1.59
				c0.23,0.433,0.547,0.771,0.942,1.02c0.396,0.249,0.862,0.422,1.393,0.521c0.529,0.101,1.076,0.148,1.641,0.148
				c1.389,0,2.465-0.231,3.229-0.696c0.761-0.462,1.325-1.018,1.688-1.663c0.365-0.647,0.589-1.3,0.673-1.964
				c0.083-0.663,0.123-1.192,0.123-1.589V26.23z"/>
			<path fill="#999999" d="M112.981,32.417c0.313,0.546,0.719,0.993,1.216,1.341c0.497,0.349,1.068,0.606,1.714,0.771
				c0.647,0.166,1.318,0.248,2.015,0.248c0.495,0,1.018-0.058,1.564-0.174c0.545-0.114,1.043-0.298,1.49-0.546
				s0.82-0.579,1.118-0.994c0.298-0.413,0.447-0.936,0.447-1.565c0-1.061-0.706-1.855-2.111-2.386c-1.41-0.527-3.37-1.06-5.89-1.589
				c-1.027-0.231-2.029-0.505-3.006-0.819c-0.978-0.315-1.847-0.73-2.608-1.243c-0.762-0.514-1.376-1.161-1.839-1.938
				c-0.464-0.778-0.695-1.732-0.695-2.857c0-1.656,0.323-3.015,0.969-4.076c0.645-1.058,1.498-1.896,2.56-2.509
				c1.061-0.611,2.252-1.043,3.576-1.291c1.326-0.249,2.685-0.372,4.074-0.372c1.392,0,2.741,0.132,4.05,0.397
				c1.31,0.266,2.479,0.713,3.506,1.341c1.026,0.63,1.879,1.466,2.561,2.508c0.677,1.046,1.084,2.362,1.216,3.952h-6.708
				c-0.101-1.356-0.613-2.277-1.542-2.759c-0.929-0.479-2.02-0.72-3.278-0.72c-0.397,0-0.829,0.025-1.292,0.075
				c-0.466,0.05-0.889,0.157-1.269,0.322c-0.38,0.166-0.704,0.405-0.969,0.72c-0.266,0.316-0.396,0.738-0.396,1.268
				c0,0.629,0.23,1.144,0.696,1.541c0.463,0.398,1.065,0.72,1.812,0.97c0.743,0.248,1.598,0.472,2.559,0.671
				c0.961,0.197,1.938,0.413,2.934,0.645c1.025,0.233,2.027,0.516,3.004,0.846c0.978,0.331,1.847,0.771,2.61,1.318
				c0.762,0.545,1.374,1.226,1.839,2.037c0.464,0.812,0.696,1.812,0.696,3.005c0,1.689-0.341,3.105-1.021,4.25
				c-0.68,1.143-1.563,2.062-2.658,2.756c-1.092,0.696-2.343,1.187-3.75,1.468c-1.411,0.28-2.843,0.422-4.3,0.422
				c-1.49,0-2.949-0.148-4.374-0.448c-1.424-0.298-2.69-0.793-3.801-1.488c-1.11-0.697-2.021-1.616-2.733-2.759
				c-0.713-1.144-1.101-2.576-1.168-4.3h6.709C112.508,31.216,112.666,31.872,112.981,32.417z"/>
		</g>
	</g>
</g>
</svg>
